<svg width="178" height="46" viewBox="0 0 178 46" fill="none" xmlns="http://www.w3.org/2000/svg">
  <defs>
    <linearGradient id="ls_s" x1="18" y1="5" x2="48" y2="40" gradientUnits="userSpaceOnUse">
      <stop offset="0" stop-color="#00C8F0"/>
      <stop offset="0.48" stop-color="#2563EB"/>
      <stop offset="1" stop-color="#7C3AED"/>
    </linearGradient>
    <linearGradient id="word" x1="64" y1="10" x2="175" y2="35" gradientUnits="userSpaceOnUse">
      <stop offset="0" stop-color="#111827"/>
      <stop offset="0.55" stop-color="#2563EB"/>
      <stop offset="1" stop-color="#4F46E5"/>
    </linearGradient>
  </defs>
  <rect x="0" y="0" width="46" height="46" rx="14" fill="#FFFFFF"/>
  <rect x="2" y="2" width="42" height="42" rx="12" fill="#F8FAFC" stroke="#E5E7EB"/>
  <rect x="7" y="31" width="3.8" height="3.8" rx="1" fill="#00C8F0" opacity="0.72"/>
  <rect x="12.8" y="36" width="3" height="3" rx="0.8" fill="#00C8F0" opacity="0.48"/>
  <rect x="18.5" y="34" width="2.3" height="2.3" rx="0.6" fill="#00C8F0" opacity="0.34"/>
  <rect x="8" y="25.5" width="2.5" height="2.5" rx="0.7" fill="#00C8F0" opacity="0.28"/>
  <path d="M21.2 14.1C21.2 10.8 23.9 7.8 29.1 7.8C34.8 7.8 38 11 38 15.1C38 18.8 34.7 20.4 30.7 21.7C26.9 23 24.3 24.2 24.3 27.2C24.3 30.2 26.6 32.6 30.7 32.6C34.8 32.6 37.3 30.3 37.3 26.9H32.5C32.5 28.1 31.8 29.2 30.4 29.2C29 29.2 28 28.2 28 26.9C28 25.1 30.2 24.2 34 22.9C38.6 21.4 42 18.9 42 14.7C42 8.8 37.3 4.5 29.2 4.5C21 4.5 16.4 8.8 16.4 14.1H21.2Z" fill="url(#ls_s)"/>
  <path d="M7.8 7.4H13.9V29.4H24V34.7H7.8V7.4Z" fill="#0F172A"/>
  <text x="58" y="30" font-family="Inter, Arial, sans-serif" font-size="20" font-weight="800" letter-spacing="3" fill="url(#word)">LEADOS</text>
</svg>
